<svg width="23" height="28" viewBox="0 0 23 28" fill="none" xmlns="http://www.w3.org/2000/svg">
<path d="M20.8814 8.53873L19.4766 7.84155C19.3595 7.76408 19.2034 7.84155 19.1644 7.95775L16.1598 13.7289L15.9647 13.5352L17.8377 5.51761C17.8767 5.40141 17.7987 5.28521 17.6816 5.24648L16.1208 4.74296C16.0037 4.70423 15.8476 4.78169 15.8086 4.89789L13.2722 12.3345L12.6479 12.2183L13.6624 3.27113C13.6624 3.19366 13.6624 3.15493 13.5844 3.07746C13.5453 3.03873 13.4673 3 13.3893 3H11.6333C11.5162 3 11.3992 3.07746 11.3992 3.19366L9.68224 12.5669L9.40909 12.6444L8.82377 4.5493C8.82377 4.47183 8.78475 4.4331 8.74573 4.39437C8.70671 4.35563 8.62866 4.35563 8.55062 4.35563L6.79466 4.70423C6.6776 4.74296 6.59956 4.82042 6.59956 4.93662V16.7887L2.22917 14.2324C2.11211 14.1549 1.99504 14.1937 1.917 14.2711L1.05853 15.3169C0.980489 15.3944 0.980489 15.5493 1.05853 15.6268L6.79466 21.5141L8.35552 23.0634L8.19943 24.6901C8.19943 24.8063 8.27747 24.9225 8.43356 24.9613C8.43356 24.9613 8.43356 24.9613 8.47258 24.9613C8.58964 24.9613 8.70671 24.8838 8.70671 24.7289L8.86279 22.9859C8.86279 22.9085 8.86279 22.831 8.78475 22.7923L7.14586 21.1655L1.56581 15.4718L2.15113 14.7359L6.6776 17.4085C6.71662 17.4085 6.71662 17.4472 6.75564 17.4472L9.91637 17.9894L11.1651 19.5387C11.2041 19.6162 11.2821 19.6162 11.3602 19.6162C11.3992 19.6162 11.4772 19.6162 11.5162 19.5775C11.6333 19.5 11.6333 19.3451 11.5553 19.2289L10.2285 17.6021C10.1895 17.5634 10.1505 17.5246 10.0725 17.5246L6.98977 17.0211V5.13028L8.27747 4.85915L8.94084 12.8768C8.94084 12.9542 8.97986 12.993 9.0579 13.0317C9.09692 13.0704 9.17496 13.0704 9.25301 13.0704L9.95539 12.9155C10.0334 12.8768 10.1115 12.838 10.1505 12.7218L11.8674 3.38732H13.1551L12.1406 12.2958C12.1406 12.412 12.2186 12.5282 12.3357 12.5669L13.3893 12.7218C13.5063 12.7218 13.6234 12.6831 13.6624 12.5669L16.1988 5.16901L17.3304 5.55634L15.4574 13.4577C15.4574 13.5352 15.4574 13.6127 15.5354 13.6901L16.0427 14.1937C16.0817 14.2324 16.1598 14.2711 16.2378 14.2711C16.3159 14.2711 16.3939 14.1937 16.4329 14.1549L19.4766 8.30634L20.4521 8.80986L16.3549 20.7394L15.0672 22.5211C15.0282 22.5599 15.0282 22.5986 15.0282 22.6761V24.7676C15.0282 24.8838 15.1452 25 15.2623 25C15.3794 25 15.4964 24.8838 15.4964 24.7676V22.7535L16.7451 21.0106C16.7451 21.0106 16.7841 20.9718 16.7841 20.9331L20.9594 8.80986C21.0374 8.69366 20.9984 8.57746 20.8814 8.53873Z" fill="black"/>
</svg>
