<svg width="23" height="28" viewBox="0 0 23 28" fill="none" xmlns="http://www.w3.org/2000/svg">
<path d="M10.5254 27.5272C9.02857 27.4943 7.71977 27.0779 6.92968 26.3846C6.55887 26.0605 6.35725 25.6613 6.33039 25.1977C6.32792 25.1848 6.32669 25.1713 6.32669 25.1578C6.32514 25.1161 6.32638 25.1038 6.32761 25.0925V23.8243C6.15996 23.8831 5.78421 24.0095 5.37202 24.1107C4.93421 24.195 4.55568 24.2345 4.20309 24.2345C2.69731 24.1977 1.3882 23.7847 0.605512 23.1018C0.233466 22.7783 0.0318507 22.3785 0.00653306 21.9133C0.00437179 21.9014 0.00344547 21.8891 0.00344547 21.8765L0.00251913 21.8361L0.00344547 5.90528C0.00159295 5.88995 4.92941e-05 5.87339 4.92941e-05 5.86511C-0.00334698 5.46833 0.168937 5.06296 0.460398 4.7827C0.678995 4.56744 0.94483 4.40064 1.29495 4.26051L10.8397 0.156538C11.1136 0.0369516 11.4341 0.0798801 11.674 0.268766C11.9037 0.444159 12.042 0.73638 12.042 1.04914V2.65896C12.042 2.78591 11.9383 2.88894 11.8104 2.88894C11.6826 2.88894 11.5789 2.78591 11.5789 2.65896V1.04914C11.5789 0.880804 11.5063 0.720742 11.3893 0.631512C11.2806 0.546268 11.142 0.52695 11.0247 0.578158L1.47372 4.68519C1.17732 4.80386 0.960268 4.93878 0.784897 5.11172C0.626507 5.26381 0.460707 5.53947 0.463486 5.86389L0.466882 21.817C0.465956 21.8235 0.466574 21.8315 0.466882 21.8505C0.4675 21.8563 0.468117 21.8618 0.468117 21.8679C0.482011 22.2187 0.627125 22.5094 0.911485 22.7563C1.6142 23.3695 2.81618 23.7409 4.20957 23.7749C4.52666 23.7749 4.87648 23.7381 5.27322 23.6621C5.7805 23.537 6.25351 23.3625 6.25814 23.3609C6.28099 23.3527 6.30446 23.3478 6.32823 23.3468L6.3273 9.19913C6.32576 9.18379 6.32422 9.16724 6.32422 9.15957C6.31989 8.76494 6.49187 8.35987 6.78333 8.07839C7.00193 7.86282 7.26869 7.69632 7.62159 7.55558L15.8563 4.01827V2.81872C15.8437 2.67062 15.7785 2.53141 15.6785 2.45505C15.5689 2.3695 15.4339 2.3508 15.316 2.40231L5.76352 6.50996C5.33281 6.69302 4.77922 6.7939 4.20247 6.7939C4.19815 6.7939 4.19383 6.7939 4.1895 6.7939C3.46147 6.7939 2.6655 6.63537 2.05819 6.36891C1.87201 6.29133 1.69047 6.19198 1.54998 6.09079C1.44655 6.01628 1.4234 5.87247 1.49873 5.76975C1.57345 5.66734 1.71856 5.64403 1.82199 5.71854C1.88714 5.76546 2.02824 5.85775 2.24128 5.94668C2.79117 6.188 3.53063 6.3361 4.20185 6.33395C4.71747 6.33395 5.20684 6.24656 5.58012 6.08742L15.1298 1.981C15.4012 1.86141 15.7211 1.90342 15.9619 2.0917C16.1638 2.24532 16.2944 2.50442 16.3182 2.80032L16.3185 3.81896L17.1734 3.45192C17.4424 3.33356 17.7613 3.37495 18.0034 3.56077C18.2331 3.73678 18.3702 4.02931 18.3702 4.34299V5.95404C18.3702 6.08098 18.2664 6.18401 18.1386 6.18401C18.0108 6.18401 17.907 6.08098 17.907 5.95404V4.34299C17.907 4.17342 17.8354 4.01305 17.7202 3.92474C17.611 3.84073 17.476 3.82172 17.359 3.87323L16.2691 4.34146C16.2231 4.39972 16.1487 4.43682 16.0675 4.42793L7.79943 7.97996C7.50056 8.09924 7.28227 8.23415 7.10752 8.40648C6.94944 8.55888 6.78364 8.83485 6.78703 9.15712L6.79012 25.1115C6.79012 25.1152 6.78981 25.1204 6.7895 25.1259C6.79074 25.1333 6.79136 25.1409 6.79167 25.1489C6.80618 25.5 6.95191 25.7913 7.23596 26.0397C7.93559 26.6536 9.16689 27.0375 10.5307 27.0675C11.2034 27.0675 11.8215 26.9522 12.3634 26.725L21.9131 22.6149C22.0789 22.5487 22.1907 22.3589 22.1907 22.151V6.16929C22.1907 5.99972 22.1184 5.83844 22.0014 5.74829C21.8921 5.66458 21.76 5.64556 21.6386 5.69769L12.0889 9.80473C11.6588 9.99024 11.1191 10.0887 10.5285 10.0887C9.79706 10.0914 8.99338 9.93137 8.38452 9.66459C8.14863 9.56463 7.97851 9.45915 7.87755 9.38801C7.77319 9.31473 7.74849 9.17092 7.82228 9.06758C7.89576 8.96394 8.04026 8.93941 8.14523 9.013C8.26163 9.09487 8.412 9.17644 8.56853 9.24298C9.1141 9.48184 9.86035 9.62902 10.5208 9.62902C10.5232 9.62902 10.5257 9.62902 10.5279 9.62902C11.0484 9.62902 11.5372 9.54164 11.9043 9.38311L21.454 5.27607C21.7297 5.15741 22.04 5.19788 22.2845 5.38493C22.5158 5.56369 22.6532 5.85653 22.6532 6.1696V22.151C22.6532 22.5481 22.4272 22.905 22.0906 23.0393L12.5453 27.1475C11.9444 27.3996 11.2655 27.5272 10.5254 27.5272Z" fill="black"/>
</svg>
