<svg width="26" height="22" viewBox="0 0 26 22" fill="none" xmlns="http://www.w3.org/2000/svg">
<path d="M17.7413 7.9509L14.3127 13.098M6.51607 8.89605L10.4699 13.696M19.1439 8.68619L15.7153 13.8332M8.07488 8.01416L12.1268 13.0142M9.25974 3.72059H16.7403M9.57036 5.375H16.4288M9.57143 5.04412C9.57143 7.27762 7.65265 9.08824 5.28571 9.08824C2.91878 9.08824 1 7.27762 1 5.04412C1 2.81061 2.91878 1 5.28571 1C7.65265 1 9.57143 2.81061 9.57143 5.04412ZM25 5.04412C25 7.27762 23.0812 9.08824 20.7143 9.08824C18.3474 9.08824 16.4286 7.27762 16.4286 5.04412C16.4286 2.81061 18.3474 1 20.7143 1C23.0812 1 25 2.81061 25 5.04412ZM17.2078 16.9559C17.2078 19.1894 15.289 21 12.9221 21C10.5551 21 8.63636 19.1894 8.63636 16.9559C8.63636 14.7224 10.5551 12.9118 12.9221 12.9118C15.289 12.9118 17.2078 14.7224 17.2078 16.9559Z" stroke="#6E6E6E"/>
</svg>
