<svg width="64" height="85" viewBox="0 0 64 85" fill="none" xmlns="http://www.w3.org/2000/svg">
<path d="M13 0C6.93671 0 2 4.93671 2 11C2 17.0633 6.93671 22 13 22C19.0633 22 24 17.0633 24 11C24 4.93671 19.0633 0 13 0ZM37 0C30.9367 0 26 4.93671 26 11C26 17.0633 30.9367 22 37 22C43.0633 22 48 17.0633 48 11C48 4.93671 43.0633 0 37 0ZM13 2C17.9824 2 22 6.01759 22 11C22 15.9824 17.9824 20 13 20C8.01759 20 4 15.9824 4 11C4 6.01759 8.01759 2 13 2ZM37 2C41.9824 2 46 6.01759 46 11C46 15.9824 41.9824 20 37 20C32.0176 20 28 15.9824 28 11C28 6.01759 32.0176 2 37 2ZM5 24C2.2473 24 0 26.2473 0 29V55C0 57.7527 2.2473 60 5 60H12.6875L5.0625 82.875C4.99635 83.0033 4.95875 83.1444 4.95229 83.2886C4.94582 83.4327 4.97064 83.5766 5.02505 83.7103C5.07945 83.844 5.16215 83.9643 5.26746 84.063C5.37277 84.1617 5.49819 84.2365 5.63512 84.2821C5.77205 84.3278 5.91724 84.3432 6.06071 84.3275C6.20418 84.3117 6.34253 84.265 6.46627 84.1907C6.59001 84.1164 6.69619 84.0162 6.77754 83.897C6.85888 83.7777 6.91345 83.6423 6.9375 83.5L14.7812 60H35.2188L43.0625 83.5C43.0866 83.6423 43.1411 83.7777 43.2225 83.897C43.3038 84.0162 43.41 84.1164 43.5337 84.1907C43.6575 84.265 43.7958 84.3117 43.9393 84.3275C44.0828 84.3432 44.2279 84.3278 44.3649 84.2821C44.5018 84.2365 44.6272 84.1617 44.7325 84.063C44.8379 83.9643 44.9205 83.844 44.975 83.7103C45.0294 83.5766 45.0542 83.4327 45.0477 83.2886C45.0412 83.1444 45.0037 83.0033 44.9375 82.875L37.3125 60H45C47.7527 60 50 57.7527 50 55V51.5312L62.5312 57.9062C62.6854 57.9881 62.8582 58.0281 63.0326 58.0225C63.207 58.0168 63.3768 57.9656 63.5253 57.874C63.6738 57.7824 63.7957 57.6535 63.879 57.5002C63.9623 57.3469 64.004 57.1744 64 57V27C64.0011 26.8575 63.9717 26.7164 63.9138 26.5861C63.856 26.4559 63.7709 26.3395 63.6644 26.2448C63.5578 26.1501 63.4323 26.0793 63.2962 26.037C63.16 25.9948 63.0164 25.9822 62.875 26C62.7557 26.0104 62.6393 26.0422 62.5312 26.0938L50 32.4688V29C50 26.2473 47.7527 24 45 24H5ZM5 26H45C46.6793 26 48 27.3207 48 29V55C48 56.6793 46.6793 58 45 58H5C3.3207 58 2 56.6793 2 55V29C2 27.3207 3.3207 26 5 26ZM62 28.6562V55.3438L50 49.25V34.75L62 28.6562Z" fill="#6E6E6E"/>
</svg>
