<svg width="34" height="34" viewBox="0 0 34 34" fill="none" xmlns="http://www.w3.org/2000/svg">
<path d="M17.4247 12.9604H16.9841V23.0273H17.4247V12.9604Z" fill="#6E6E6E"/>
<path d="M17.1728 0C7.97491 0 0.484375 7.63036 0.484375 17C0.484375 26.3696 7.97491 34 17.1728 34C26.3708 34 33.8613 26.3696 33.8613 17C33.8613 7.63036 26.3708 0 17.1728 0ZM17.1728 33.6634C8.14014 33.6634 0.81484 26.2013 0.81484 17C0.81484 7.79868 8.14014 0.336634 17.1728 0.336634C26.2056 0.336634 33.5309 7.79868 33.5309 17C33.5309 26.2013 26.2056 33.6634 17.1728 33.6634Z" fill="#6E6E6E"/>
<path d="M17.4247 8.72446H16.9841V10.4557H17.4247V8.72446Z" fill="#6E6E6E"/>
</svg>
