<svg width="45" height="21" viewBox="0 0 45 21" fill="none" xmlns="http://www.w3.org/2000/svg">
<g id="Scroll Icon">
<path id="Right" d="M37.4247 21L36 19.8541L42.7493 10.5L36 1.14587L37.4247 0L45 10.5L37.4247 21Z" fill="#6E6E6E"/>
<path id="Left" d="M7.5753 21L9 19.8541L2.25075 10.5L9 1.14587L7.5753 0L0 10.5L7.5753 21Z" fill="#6E6E6E"/>
<path id="Circle" d="M22.4999 0C28.2894 0 33 4.71022 33 10.4997C33 16.2895 28.2894 21 22.4999 21C16.71 21 12 16.2895 12 10.4997C12 4.71022 16.71 0 22.4999 0ZM22.4999 20.2517C27.8235 20.2517 32.1388 15.8859 32.1388 10.5003C32.1388 5.11462 27.8235 0.74856 22.4999 0.74856C17.1765 0.74856 12.8607 5.11462 12.8607 10.5003C12.8607 15.8859 17.1765 20.2517 22.4999 20.2517Z" fill="#6E6E6E"/>
</g>
</svg>
