<svg width="27" height="32" viewBox="0 0 27 32" fill="none" xmlns="http://www.w3.org/2000/svg">
<path d="M19.335 29.2888C19.2841 29.2886 19.2336 29.279 19.1863 29.2606C17.3315 28.4691 15.8173 27.0689 14.905 25.3017C14.6844 24.8327 12.7667 20.7893 13.6153 19.1569C13.6958 18.9921 13.8151 18.8483 13.9635 18.7374C14.1118 18.6265 14.285 18.5517 14.4687 18.519C15.4563 18.3361 16.0748 19.6448 16.9378 21.4554C17.8583 23.3926 19.0041 25.8083 20.7301 26.5401C20.8109 26.59 20.8711 26.6662 20.9003 26.7552C20.9295 26.8443 20.9258 26.9405 20.8898 27.0271C20.8538 27.1138 20.7878 27.1852 20.7034 27.2291C20.619 27.273 20.5216 27.2864 20.4281 27.2671C18.4192 26.4134 17.2015 23.8476 16.2234 21.7884C15.744 20.7705 15.0104 19.232 14.6461 19.2977C14.5849 19.3079 14.5274 19.333 14.4788 19.3707C14.4302 19.4084 14.3921 19.4575 14.368 19.5134C13.9173 20.3812 14.6988 22.9658 15.6673 24.9546C16.4934 26.5345 17.8467 27.7907 19.5028 28.5148C19.5907 28.549 19.6638 28.6121 19.7094 28.6932C19.755 28.7743 19.7704 28.8685 19.7528 28.9595C19.7352 29.0504 19.6858 29.1326 19.6131 29.1918C19.5403 29.2511 19.4488 29.2837 19.3541 29.2841L19.335 29.2888Z" fill="#6E6E6E"/>
<path d="M16.5926 30.635C16.4916 30.6349 16.3942 30.5982 16.3193 30.5318C16.1131 30.3536 11.688 26.4462 11.3188 22.3794C11.0647 19.626 11.5825 17.5809 12.7571 16.6099C13.1179 16.3227 13.547 16.1292 14.0045 16.0472C14.4621 15.9652 14.9334 15.9974 15.3748 16.1409C16.8419 16.5396 17.8295 18.4158 18.8699 20.4047C19.9103 22.3935 20.9267 24.3167 22.4225 25.0953C22.5096 25.1496 22.5724 25.2341 22.5982 25.3319C22.624 25.4296 22.6109 25.5333 22.5617 25.6221C22.5124 25.7108 22.4305 25.7779 22.3326 25.8098C22.2347 25.8418 22.128 25.8362 22.0342 25.7942C20.3178 24.8561 19.2151 22.7781 18.146 20.7471C17.1871 18.9177 16.281 17.1963 15.1543 16.8867C14.8418 16.7766 14.5059 16.7459 14.178 16.7976C13.8501 16.8493 13.541 16.9816 13.2797 17.1822C12.3208 17.9655 11.8941 19.823 12.1194 22.2669C12.4646 26.0194 16.7987 29.8611 16.8467 29.8986C16.9253 29.9458 16.9852 30.0178 17.0166 30.1026C17.048 30.1875 17.049 30.2803 17.0195 30.3658C16.99 30.4514 16.9317 30.5245 16.8541 30.5734C16.7766 30.6223 16.6844 30.644 16.5926 30.635Z" fill="#6E6E6E"/>
<path d="M9.90445 26.0944C9.82318 26.0947 9.74369 26.0711 9.6762 26.0268C9.60871 25.9825 9.55629 25.9195 9.5257 25.8458C8.90243 24.3683 7.69425 19.823 9.5257 16.5583C11.5058 13.0732 14.6461 13.0309 16.7172 14.0535C18.7884 15.0761 22.9307 22.3138 23.391 23.1393C23.4168 23.1852 23.4331 23.2356 23.439 23.2877C23.4449 23.3398 23.4403 23.3924 23.4254 23.4428C23.4105 23.4931 23.3856 23.54 23.3521 23.5809C23.3186 23.6218 23.2773 23.6558 23.2304 23.6811C23.1835 23.7064 23.1319 23.7223 23.0787 23.7281C23.0255 23.7339 22.9717 23.7293 22.9202 23.7147C22.8688 23.7001 22.8208 23.6758 22.779 23.6431C22.7372 23.6103 22.7024 23.5699 22.6766 23.524C21.4637 21.3522 17.9686 15.5498 16.396 14.7712C14.5406 13.8612 11.9564 13.9362 10.264 16.9476C8.57162 19.9591 9.74144 24.2557 10.264 25.5409C10.2892 25.6016 10.2988 25.6673 10.2918 25.7324C10.2849 25.7975 10.2617 25.8599 10.2242 25.9142C10.1868 25.9684 10.1363 26.0128 10.0772 26.0434C10.0181 26.074 9.95216 26.09 9.88527 26.0898L9.90445 26.0944Z" fill="#6E6E6E"/>
<path d="M13.8119 31.9812C13.7176 31.9817 13.6261 31.9502 13.553 31.8921C12.201 30.7992 10.4366 28.0833 10.3599 27.966C10.3313 27.9217 10.3118 27.8722 10.3027 27.8205C10.2936 27.7688 10.295 27.7159 10.3068 27.6647C10.3186 27.6135 10.3406 27.5651 10.3715 27.5223C10.4024 27.4794 10.4416 27.4429 10.487 27.4149C10.5323 27.3868 10.5828 27.3678 10.6357 27.3589C10.6885 27.35 10.7426 27.3513 10.7949 27.3629C10.8473 27.3744 10.8967 27.3959 10.9405 27.4262C10.9844 27.4564 11.0217 27.4948 11.0503 27.5392C11.0503 27.5673 12.8194 30.2644 14.0708 31.2917C14.1363 31.3437 14.1837 31.4144 14.2064 31.4939C14.2291 31.5734 14.2261 31.6578 14.1977 31.7356C14.1693 31.8133 14.1169 31.8805 14.0478 31.9278C13.9787 31.9752 13.8962 32.0004 13.8119 32V31.9812Z" fill="#6E6E6E"/>
<path d="M24.556 20.9113C24.4766 20.9113 24.399 20.8888 24.3325 20.8463C24.2661 20.8038 24.2138 20.7432 24.1821 20.672C24.1485 20.5923 20.5479 12.7214 14.6221 11.7598C11.4195 11.2438 8.06821 12.8339 4.6738 16.4833C4.60035 16.5579 4.50011 16.6016 4.39428 16.6052C4.28846 16.6087 4.18538 16.5719 4.10686 16.5024C4.02834 16.4329 3.98056 16.3362 3.97362 16.2328C3.96669 16.1294 4.00115 16.0275 4.06971 15.9485C7.66548 12.0881 11.2613 10.4135 14.7563 10.9717C21.1233 11.9943 24.7766 20.0013 24.93 20.3531C24.9571 20.4138 24.9683 20.4801 24.9626 20.5461C24.9568 20.6121 24.9344 20.6757 24.8973 20.7311C24.8602 20.7865 24.8096 20.832 24.75 20.8635C24.6904 20.8949 24.6237 20.9113 24.556 20.9113Z" fill="#6E6E6E"/>
<path d="M9.83254 31.9812C9.76346 31.9811 9.69554 31.9639 9.63516 31.9311C9.57478 31.8982 9.52391 31.8509 9.48734 31.7936C5.36419 25.3674 5.3546 20.9722 6.07376 18.4205C6.47695 16.7977 7.41343 15.3492 8.73942 14.2974C8.78318 14.2666 8.83271 14.2446 8.88518 14.2325C8.93766 14.2204 8.99205 14.2186 9.04525 14.2271C9.09845 14.2356 9.14942 14.2542 9.19525 14.282C9.24108 14.3097 9.28087 14.3461 9.31235 14.3889C9.34383 14.4317 9.36638 14.4802 9.37872 14.5315C9.39106 14.5828 9.39294 14.636 9.38426 14.6881C9.37558 14.7401 9.3565 14.79 9.32812 14.8349C9.29974 14.8797 9.26261 14.9186 9.21886 14.9494C8.94078 15.1417 2.67935 19.6682 10.1777 31.3668C10.2162 31.4271 10.2375 31.4964 10.2394 31.5674C10.2413 31.6385 10.2237 31.7088 10.1885 31.771C10.1533 31.8332 10.1017 31.8851 10.0391 31.9212C9.97654 31.9573 9.90521 31.9764 9.83254 31.9765V31.9812Z" fill="#6E6E6E"/>
<path d="M4.17519 26.0944C4.08149 26.0941 3.99076 26.0623 3.91828 26.0042C3.8458 25.9461 3.796 25.8653 3.77726 25.7755C2.96701 21.8025 3.77726 19.7245 3.77726 19.6401C3.81604 19.5412 3.89339 19.4614 3.99229 19.4183C4.0912 19.3752 4.20355 19.3723 4.30464 19.4102C4.40573 19.4482 4.48727 19.5239 4.53132 19.6206C4.57538 19.7174 4.57834 19.8273 4.53956 19.9262C4.53956 19.9262 3.80123 21.901 4.53956 25.6207C4.55003 25.6721 4.55001 25.7251 4.53952 25.7765C4.52903 25.828 4.50827 25.8769 4.47843 25.9204C4.4486 25.964 4.41026 26.0014 4.36563 26.0304C4.321 26.0595 4.27094 26.0797 4.21834 26.0898L4.17519 26.0944Z" fill="#6E6E6E"/>
<path d="M7.27714 31.484C7.22137 31.4839 7.16622 31.4726 7.11509 31.4509C7.06396 31.4291 7.01795 31.3973 6.97989 31.3574C5.96506 30.2797 5.15345 29.0346 4.58271 27.6799C4.54393 27.581 4.54689 27.4711 4.59095 27.3743C4.63501 27.2775 4.71655 27.2019 4.81763 27.1639C4.91872 27.126 5.03108 27.1289 5.12998 27.172C5.22888 27.2151 5.30623 27.2949 5.34502 27.3938C5.87862 28.6538 6.63128 29.8139 7.5696 30.8226C7.62374 30.8794 7.65978 30.9504 7.67327 31.0269C7.68677 31.1034 7.67715 31.1821 7.64558 31.2533C7.61402 31.3245 7.56189 31.3852 7.49558 31.4278C7.42928 31.4705 7.3517 31.4933 7.27235 31.4934L7.27714 31.484Z" fill="#6E6E6E"/>
<path d="M25.1361 18.3595C25.0498 18.3596 24.9656 18.3328 24.8958 18.2831C24.826 18.2334 24.7742 18.1632 24.7478 18.0828C24.6279 17.731 21.7705 9.44258 12.9728 9.91164C12.865 9.9168 12.7594 9.88039 12.6788 9.81023C12.5981 9.74007 12.5488 9.64175 12.5414 9.53639C12.5381 9.48401 12.5455 9.43152 12.563 9.38193C12.5805 9.33234 12.6079 9.28662 12.6435 9.2474C12.6792 9.20818 12.7224 9.17623 12.7707 9.15338C12.8189 9.13052 12.8714 9.11722 12.9249 9.11423C22.3458 8.61702 25.4957 17.7451 25.5245 17.8389C25.5441 17.8987 25.549 17.9622 25.5388 18.0243C25.5286 18.0863 25.5035 18.1451 25.4657 18.1959C25.4278 18.2466 25.3782 18.2879 25.321 18.3163C25.2637 18.3448 25.2004 18.3596 25.1361 18.3595Z" fill="#6E6E6E"/>
<path d="M0.986942 18.9083C0.920652 18.9082 0.85539 18.8923 0.796816 18.8619C0.738242 18.8316 0.688125 18.7877 0.650811 18.7341C0.613497 18.6805 0.590111 18.6188 0.582683 18.5543C0.575256 18.4899 0.58401 18.4246 0.608187 18.3642C4.00259 9.97731 10.1346 9.55515 10.3935 9.54108C10.5016 9.53548 10.6075 9.57212 10.688 9.64293C10.7684 9.71375 10.8168 9.81294 10.8226 9.91868C10.8283 10.0244 10.7908 10.1281 10.7185 10.2068C10.6461 10.2855 10.5447 10.3329 10.4366 10.3385C10.1969 10.3385 4.55395 10.77 1.3657 18.655C1.33585 18.7296 1.28376 18.7936 1.21621 18.8388C1.14866 18.884 1.06877 18.9082 0.986942 18.9083Z" fill="#6E6E6E"/>
<path d="M1.78281 23.7303C1.68409 23.73 1.58886 23.6947 1.51479 23.6308C1.44072 23.567 1.39285 23.479 1.38008 23.3832C1.20244 21.4669 1.68694 19.5477 2.75606 17.9327C2.81964 17.8456 2.91597 17.7868 3.02386 17.7692C3.13176 17.7516 3.24238 17.7767 3.33138 17.8389C3.42039 17.9011 3.4805 17.9953 3.49848 18.1009C3.51646 18.2064 3.49085 18.3147 3.42727 18.4018C2.49109 19.8555 2.06366 21.5677 2.2095 23.28C2.21621 23.3321 2.21235 23.385 2.19813 23.4356C2.18392 23.4862 2.15964 23.5335 2.12668 23.5749C2.09372 23.6163 2.05273 23.6509 2.00606 23.6768C1.95939 23.7027 1.90796 23.7193 1.85472 23.7257L1.78281 23.7303Z" fill="#6E6E6E"/>
<path d="M0.406823 15.5217C0.340533 15.5216 0.275272 15.5056 0.216698 15.4753C0.158124 15.4449 0.108007 15.401 0.0706929 15.3474C0.0333785 15.2938 0.00999385 15.2321 0.00256625 15.1676C-0.00486135 15.1032 0.0038929 15.038 0.0280694 14.9776C0.0568356 14.9025 3.05331 7.64605 12.2153 6.70792C21.3774 5.76978 25.9608 14.3584 26.0087 14.4475C26.0577 14.5421 26.0662 14.6518 26.0325 14.7525C25.9988 14.8532 25.9256 14.9367 25.8289 14.9846C25.7323 15.0325 25.6202 15.0409 25.5172 15.0079C25.4143 14.9749 25.3289 14.9032 25.28 14.8087C25.2224 14.7243 20.9075 6.61879 12.2777 7.50064C3.64781 8.38248 0.771195 15.198 0.771195 15.2684C0.742289 15.3407 0.692404 15.4033 0.627671 15.4483C0.562938 15.4933 0.486178 15.5188 0.406823 15.5217Z" fill="#6E6E6E"/>
<path d="M0.986942 10.3385C0.90956 10.3388 0.833685 10.3176 0.76819 10.2772C0.702695 10.2369 0.650288 10.1792 0.617097 10.1108C0.583906 10.0424 0.571303 9.96619 0.580762 9.89105C0.590222 9.81591 0.621353 9.74496 0.670514 9.68649C0.795167 9.53639 3.86356 5.93396 11.1414 4.64871C14.3796 4.01379 17.7428 4.51184 20.6438 6.05591C21.888 6.7083 23.0033 7.57238 23.9375 8.60764C24.0081 8.68974 24.0425 8.79591 24.033 8.90279C24.0236 9.00968 23.9711 9.10851 23.8872 9.17755C23.8033 9.2466 23.6948 9.2802 23.5855 9.27096C23.4763 9.26172 23.3753 9.21041 23.3047 9.1283C23.2567 9.0767 18.9898 4.08583 11.2852 5.43674C4.29984 6.67508 1.33214 10.1602 1.30337 10.1837C1.26591 10.2311 1.218 10.2696 1.16322 10.2964C1.10844 10.3232 1.04818 10.3376 0.986942 10.3385Z" fill="#6E6E6E"/>
<path d="M26.5888 12.6135C26.5268 12.6133 26.4656 12.5993 26.4099 12.5724C26.3542 12.5456 26.3056 12.5067 26.2676 12.4587L24.8293 10.6152C24.7875 10.5748 24.7551 10.526 24.7344 10.4722C24.7137 10.4183 24.7052 10.3608 24.7094 10.3034C24.7135 10.246 24.7303 10.1902 24.7586 10.1398C24.7869 10.0894 24.826 10.0456 24.8733 10.0114C24.9205 9.97713 24.9748 9.9533 25.0323 9.94151C25.0898 9.92972 25.1493 9.93024 25.2066 9.94305C25.2639 9.95586 25.3177 9.98064 25.3643 10.0157C25.4109 10.0508 25.4492 10.0953 25.4765 10.1462L26.9148 11.9896C26.9614 12.0485 26.9902 12.119 26.9979 12.193C27.0056 12.2671 26.992 12.3418 26.9586 12.4087C26.9251 12.4756 26.8732 12.532 26.8087 12.5715C26.7442 12.611 26.6697 12.632 26.5936 12.6322L26.5888 12.6135Z" fill="#6E6E6E"/>
<path d="M24.556 7.2192C24.4915 7.21939 24.4279 7.20461 24.3704 7.17607C24.3129 7.14753 24.2631 7.10605 24.2252 7.05503C24.1868 7.00343 21.3486 3.38692 14.3536 3.18053C10.1892 3.03025 6.09002 4.22533 2.68894 6.58127C2.60502 6.65093 2.49625 6.68513 2.38655 6.67633C2.27686 6.66754 2.17523 6.61647 2.10403 6.53436C2.03282 6.45225 1.99787 6.34584 2.00686 6.23852C2.01585 6.1312 2.06805 6.03177 2.15197 5.9621C2.34374 5.80731 6.94633 2.16735 14.3776 2.38781C21.8088 2.60827 24.743 6.43117 24.8868 6.58596C24.9311 6.64552 24.9577 6.71592 24.9635 6.78935C24.9694 6.86278 24.9544 6.93637 24.9201 7.00195C24.8859 7.06753 24.8337 7.12255 24.7694 7.1609C24.7052 7.19925 24.6313 7.21943 24.556 7.2192Z" fill="#6E6E6E"/>
<path d="M5.26351 3.17584C5.17221 3.17691 5.0832 3.14794 5.01073 3.0936C4.93827 3.03925 4.88656 2.96267 4.8639 2.87614C4.84123 2.7896 4.84893 2.69813 4.88575 2.61639C4.92256 2.53464 4.98637 2.46736 5.06694 2.42534L5.19639 2.35029C7.54844 0.930783 10.2338 0.126203 12.9949 0.0136775C15.7561 -0.0988481 18.5005 0.484454 20.965 1.70766C21.0172 1.72811 21.0644 1.75888 21.1038 1.79804C21.1432 1.8372 21.1739 1.8839 21.194 1.93521C21.214 1.98653 21.2231 2.04134 21.2204 2.09623C21.2178 2.15111 21.2037 2.20488 21.1788 2.25415C21.154 2.30342 21.119 2.34714 21.076 2.38255C21.0331 2.41797 20.9832 2.44432 20.9293 2.45995C20.8755 2.47559 20.8189 2.48016 20.7632 2.4734C20.7075 2.46664 20.6538 2.44868 20.6055 2.42065C18.2679 1.24437 15.6583 0.682153 13.0319 0.789045C10.4056 0.895937 7.85268 1.66827 5.62309 3.03043L5.46487 3.12425C5.40345 3.15821 5.33407 3.17599 5.26351 3.17584Z" fill="#6E6E6E"/>
</svg>
