<svg width="11" height="11" viewBox="0 0 11 11" fill="none" xmlns="http://www.w3.org/2000/svg">
<path d="M5.5 0C2.46589 0 0 2.46589 0 5.5C0 8.53411 2.46589 11 5.5 11C8.53411 11 11 8.53411 11 5.5C11 2.46559 8.53411 0 5.5 0ZM5.5 0.21327C8.41358 0.21327 10.7867 2.58642 10.7867 5.5C10.7867 8.41358 8.41358 10.7867 5.5 10.7867C2.58642 10.7867 0.21327 8.41358 0.21327 5.5C0.21327 2.58642 2.58642 0.21327 5.5 0.21327ZM7.18652 4.21102C7.15994 4.21102 7.13336 4.22068 7.1113 4.24274L4.80974 6.53252L3.89111 5.60845C3.84731 5.56465 3.78267 5.56525 3.73917 5.60784C3.69839 5.64802 3.69808 5.71508 3.73977 5.75768L4.73211 6.75696C4.75476 6.77932 4.77863 6.78808 4.80733 6.78808C4.833 6.78808 4.85838 6.77901 4.88134 6.75636L7.25902 4.39257C7.30313 4.34846 7.30222 4.28533 7.26053 4.24183C7.23848 4.22038 7.2128 4.21072 7.18652 4.21072V4.21102Z" fill="black"/>
</svg>
