<svg width="24" height="16" viewBox="0 0 24 16" fill="none" xmlns="http://www.w3.org/2000/svg">
<path d="M22.8475 0H1.03336L11.9961 9.67026L22.8475 0ZM1.76463 0.276475H22.1217L11.9953 9.30061L1.76463 0.276475Z" fill="black"/>
<path d="M0.526306 0.541901V14.7701L9.46197 8.42447L0.526306 0.541901ZM0.802781 1.15457L9.01768 8.40125L0.802781 14.2346V1.15457Z" fill="black"/>
<path d="M12.2447 10.443C12.11 10.5633 11.8875 10.5636 11.7528 10.4444L10.0345 8.92876L1.14035 15.2448H22.8375L13.8972 8.97023L12.2447 10.443ZM21.9619 14.9683H2.0071L10.016 9.28071L11.5701 10.6515C11.8059 10.8608 12.193 10.8597 12.4288 10.6493L13.9179 9.32218L21.9619 14.9683Z" fill="black"/>
<path d="M14.4664 8.464L23.4737 14.7848V0.43573L14.4664 8.464ZM23.1972 14.2528L14.9107 8.43801L23.1972 1.05254V14.2528Z" fill="black"/>
</svg>
