<svg width="23" height="23" viewBox="0 0 23 23" fill="none" xmlns="http://www.w3.org/2000/svg">
<path d="M17.1201 0C16.0978 0 15.0644 0.385289 14.2827 1.17016L2.44452 13.056C2.41667 13.0838 2.39457 13.1169 2.37949 13.1532C2.36441 13.1896 2.35664 13.2286 2.35663 13.2679C2.35662 13.3073 2.36436 13.3463 2.37942 13.3827C2.39448 13.4191 2.41656 13.4521 2.4444 13.48C2.47223 13.5078 2.50528 13.5299 2.54165 13.5449C2.57802 13.56 2.61701 13.5678 2.65637 13.5677C2.69574 13.5677 2.73472 13.56 2.77108 13.5449C2.80745 13.5298 2.84048 13.5077 2.8683 13.4798L14.7064 1.59399C15.3743 0.923414 16.2469 0.589689 17.1201 0.589689C17.9931 0.589689 18.8541 0.923317 19.5246 1.59399L22.2884 4.41343L18.198 8.50437L14.255 7.09466C14.2021 7.07414 14.1445 7.06929 14.0889 7.08073C14.0334 7.09217 13.9823 7.1194 13.9418 7.15915L7.16136 13.9405C7.12161 13.981 7.09439 14.0321 7.08295 14.0877C7.07151 14.1432 7.07635 14.2009 7.09687 14.2538L8.50639 18.1973L4.41601 22.2883L1.59697 19.5241C0.256337 18.1834 0.256338 16.0461 1.59697 14.7053C1.62508 14.6775 1.64743 14.6445 1.66273 14.608C1.67802 14.5716 1.68596 14.5325 1.68609 14.493C1.68621 14.4534 1.67852 14.4143 1.66346 14.3778C1.6484 14.3412 1.62626 14.308 1.59832 14.2801C1.57038 14.2521 1.53719 14.23 1.50066 14.2149C1.46413 14.1999 1.42498 14.1922 1.38547 14.1923C1.34596 14.1924 1.30686 14.2004 1.27043 14.2157C1.234 14.231 1.20095 14.2533 1.17319 14.2815C-0.391058 15.8459 -0.391068 18.3836 1.17319 19.9479C1.17626 19.948 1.17933 19.948 1.1824 19.9479L4.22255 22.9148C4.27774 22.9694 4.35222 23 4.42983 23C4.50744 23 4.58192 22.9694 4.63711 22.9148L9.05914 18.4922C9.09888 18.4517 9.12611 18.4006 9.13754 18.345C9.14898 18.2894 9.14415 18.2318 9.12363 18.1789L7.71411 14.2354L14.2366 7.71198L18.1796 9.12169C18.2325 9.14221 18.2901 9.14706 18.3457 9.13562C18.4013 9.12418 18.4523 9.09695 18.4928 9.0572L22.9148 4.63456C22.9694 4.57936 23 4.50487 23 4.42725C23 4.34963 22.9694 4.27513 22.9148 4.21994L19.9484 1.17938C19.9484 1.17631 19.9484 1.17325 19.9484 1.17018C19.1666 0.388209 18.1428 1.79975e-05 17.1201 1.79975e-05V0Z" fill="#6E6E6E"/>
</svg>
